<svg version="1.1" id="Layer_1" xmlns="http://www.w3.org/2000/svg" xmlns:xlink="http://www.w3.org/1999/xlink" x="0px" y="0px"
	 width="100%" viewBox="0 0 500 195" enable-background="new 0 0 500 195" xml:space="preserve">
<path fill="#ffffff" opacity="0.000000" stroke="none" 
	d="
M328.000000,196.000000 
	C218.666687,196.000000 109.833374,196.000000 1.000044,196.000000 
	C1.000029,131.000031 1.000029,66.000061 1.000015,1.000070 
	C167.666611,1.000047 334.333221,1.000047 500.999878,1.000023 
	C500.999908,65.999931 500.999908,130.999863 500.999939,195.999893 
	C443.500000,196.000000 386.000000,196.000000 328.000000,196.000000 
M405.087860,93.041367 
	C398.719208,93.081665 392.350525,93.121956 385.202026,93.513733 
	C385.137634,113.297127 385.063843,133.080521 385.050110,152.863922 
	C385.049652,153.521652 385.657471,154.179810 386.913940,154.958984 
	C393.282623,154.918106 399.651337,154.877243 406.776489,154.453964 
	C406.847321,134.692795 406.927673,114.931625 406.947876,95.170395 
	C406.948547,94.501778 406.343140,93.832542 405.087860,93.041367 
M204.266342,51.584919 
	C204.185928,52.074848 204.035355,52.564739 204.035080,53.054707 
	C204.016586,85.966660 204.001297,118.878632 204.044373,151.790512 
	C204.045700,152.805267 204.663696,153.819214 205.924438,154.957916 
	C212.286774,154.917862 218.649109,154.877808 225.816132,154.525238 
	C225.875854,120.720993 225.940750,86.916748 225.959625,53.112484 
	C225.960022,52.407665 225.427689,51.702549 224.619125,50.466465 
	C218.077484,50.699810 211.535858,50.933151 204.266342,51.584919 
M199.965530,125.018799 
	C200.859406,114.718262 198.124146,105.400352 190.181519,98.779221 
	C176.765640,87.595497 150.624573,87.375763 138.767868,104.336189 
	C128.390976,119.179787 130.777283,140.438095 146.141312,151.206268 
	C155.357803,157.665848 165.501678,157.637482 175.840775,156.520859 
	C184.577133,155.577301 191.639282,151.138672 197.048965,144.295120 
	C197.810425,143.331848 197.857010,140.366379 197.211914,139.963028 
	C193.211426,137.461594 189.106644,134.620117 184.643219,133.581451 
	C182.439163,133.068542 179.463623,136.315887 176.717361,137.606979 
	C167.315567,142.026993 155.346497,139.588196 155.981033,127.016220 
	C169.141525,127.010475 182.302246,127.038498 195.462204,126.951622 
	C196.928162,126.941940 198.389816,126.278816 199.965530,125.018799 
M311.266113,51.585850 
	C311.185760,52.075783 311.035309,52.565678 311.035034,53.055649 
	C311.016541,85.966919 311.001282,118.878204 311.044342,151.789398 
	C311.045685,152.804291 311.663239,153.818359 312.923889,154.957062 
	C319.285889,154.917328 325.647858,154.877594 332.815735,154.527466 
	C332.825958,142.345505 332.836151,130.163528 333.190063,117.363014 
	C335.810852,111.733917 340.025909,107.650330 346.376648,108.220711 
	C352.263794,108.749443 355.226013,113.300743 356.024902,119.954803 
	C356.016541,130.276047 355.973145,140.597549 356.043640,150.918243 
	C356.052582,152.226761 356.658722,153.531189 357.920013,154.958237 
	C364.493347,154.958237 371.066711,154.958237 378.000183,154.958237 
	C378.000183,141.144333 377.980072,128.047928 378.006378,114.951645 
	C378.028473,103.964195 374.075562,97.821304 364.165955,93.547279 
	C354.377991,89.325722 340.446686,89.466179 333.310577,97.704201 
	C333.206696,83.828041 333.130615,69.951538 332.963013,56.076153 
	C332.942505,54.381176 332.430939,52.692139 331.622009,50.469067 
	C325.079193,50.701782 318.536346,50.934498 311.266113,51.585850 
M234.266022,93.586441 
	C234.185699,94.076218 234.035370,94.565956 234.035065,95.055786 
	C234.016449,124.633751 234.000305,154.211731 234.044449,183.789627 
	C234.045959,184.804230 234.663147,185.817932 235.923737,186.956161 
	C242.287140,186.916687 248.650528,186.877197 255.817902,186.524231 
	C255.984055,174.658875 256.150208,162.793518 256.827911,151.375259 
	C261.648407,153.159149 266.338257,155.790680 271.315460,156.558090 
	C283.266205,158.400726 293.293488,155.095078 301.004456,144.787125 
	C307.232971,136.460892 308.040497,127.239708 306.758942,117.961929 
	C305.082092,105.822227 298.057495,96.705215 286.187805,92.705833 
	C275.679108,89.165031 265.302704,89.614845 256.434052,98.227669 
	C256.079742,96.087509 255.817429,94.502914 255.596420,93.167969 
	C248.506805,93.167969 241.750092,93.167969 234.266022,93.586441 
M33.945877,85.786064 
	C35.810879,93.060547 40.758209,97.343819 46.839172,96.948753 
	C54.739479,96.435478 59.066582,92.474327 59.990932,84.107742 
	C59.996056,70.449272 60.001179,56.790806 60.907036,43.044140 
	C69.369400,42.279209 77.286926,44.005985 84.627769,48.287621 
	C107.337280,61.533222 113.775185,91.071198 94.014320,111.103745 
	C84.839226,120.404999 72.879074,125.295990 59.182758,123.376152 
	C58.140514,132.824875 62.825909,144.218048 47.965511,147.677277 
	C49.545788,148.596909 50.138298,149.167343 50.818016,149.304001 
	C64.718956,152.098755 78.413078,150.900009 91.471588,145.692535 
	C107.746269,139.202515 119.348396,127.497650 126.789848,111.596771 
	C138.743332,86.054535 133.785706,57.965488 114.784042,37.436089 
	C97.483452,18.744526 75.311157,12.641204 50.529324,17.237543 
	C43.480957,18.544815 35.494984,20.571310 33.134338,30.350821 
	C33.090237,47.892406 33.036499,65.433990 33.038342,82.975571 
	C33.038414,83.655685 33.571915,84.335739 33.945877,85.786064 
M464.007812,103.547951 
	C467.040161,96.308815 466.879364,95.413971 460.432251,93.176048 
	C449.512268,89.385490 430.386108,89.925240 420.623291,101.405235 
	C412.237671,111.265762 408.953949,121.809151 412.382721,133.576569 
	C416.466095,147.590683 427.061584,155.396622 441.538971,156.833374 
	C450.314667,157.704285 459.238129,157.308990 467.174896,151.497162 
	C465.678223,148.379333 464.112335,145.502106 462.892273,142.485016 
	C461.089691,138.027603 458.919891,136.118256 453.684875,138.469147 
	C448.160187,140.950119 441.580170,138.809982 438.266785,134.520081 
	C434.306213,129.392273 433.597382,123.569939 436.187988,117.772591 
	C440.266663,108.645355 448.575348,106.669403 459.791718,111.930328 
	C461.160919,109.397896 462.539917,106.847374 464.007812,103.547951 
M388.923523,56.528488 
	C385.077759,59.473541 382.747406,63.355736 384.143158,68.121735 
	C385.175201,71.645813 386.673035,75.888885 389.382904,77.863297 
	C393.328064,80.737755 398.546936,81.458260 403.287567,78.275803 
	C408.767670,74.596916 410.867706,66.758224 408.266144,61.621796 
	C404.654022,54.490200 395.410583,52.208858 388.923523,56.528488 
z"/>
<path fill="#024BAD" opacity="1.000000" stroke="none" 
	d="
M33.909409,29.936995 
	C35.494984,20.571310 43.480957,18.544815 50.529324,17.237543 
	C75.311157,12.641204 97.483452,18.744526 114.784042,37.436089 
	C133.785706,57.965488 138.743332,86.054535 126.789848,111.596771 
	C119.348396,127.497650 107.746269,139.202515 91.471588,145.692535 
	C78.413078,150.900009 64.718956,152.098755 50.818016,149.304001 
	C50.138298,149.167343 49.545788,148.596909 47.965511,147.677277 
	C62.825909,144.218048 58.140514,132.824875 59.182758,123.376152 
	C72.879074,125.295990 84.839226,120.404999 94.014320,111.103745 
	C113.775185,91.071198 107.337280,61.533222 84.627769,48.287621 
	C77.286926,44.005985 69.369400,42.279209 60.140038,43.350403 
	C59.251854,56.047890 59.102882,68.438995 59.047882,80.830505 
	C59.041653,82.234390 59.564342,83.640633 59.841774,85.045776 
	C59.066582,92.474327 54.739479,96.435478 46.839172,96.948753 
	C40.758209,97.343819 35.810879,93.060547 33.968521,84.934776 
	C33.963913,66.034660 33.936661,47.985825 33.909409,29.936995 
z"/>
<path fill="#014BAD" opacity="1.000000" stroke="none" 
	d="
M255.013931,186.837708 
	C248.650528,186.877197 242.287140,186.916687 235.459717,186.436493 
	C234.994934,155.000534 234.994156,124.084251 234.993393,93.167969 
	C241.750092,93.167969 248.506805,93.167969 255.596420,93.167969 
	C255.817429,94.502914 256.079742,96.087509 256.434052,98.227669 
	C265.302704,89.614845 275.679108,89.165031 286.187805,92.705833 
	C298.057495,96.705215 305.082092,105.822227 306.758942,117.961929 
	C308.040497,127.239708 307.232971,136.460892 301.004456,144.787125 
	C293.293488,155.095078 283.266205,158.400726 271.315460,156.558090 
	C266.338257,155.790680 261.648407,153.159149 256.436218,150.915558 
	C255.778168,150.470840 255.500809,150.448029 255.251389,150.520920 
	C255.161407,150.547211 255.092178,150.803238 255.091797,150.954651 
	C255.060852,162.915665 255.037674,174.876678 255.013931,186.837708 
M266.727478,110.022491 
	C258.016113,113.374504 255.756531,116.733459 256.008301,125.957092 
	C256.178680,132.198715 259.397522,136.067581 266.064148,138.043655 
	C270.182281,139.264328 278.506897,136.420334 280.908997,132.984924 
	C284.366974,128.039505 285.423187,122.991196 282.054047,117.473305 
	C278.688354,111.961082 274.219940,108.873390 266.727478,110.022491 
z"/>
<path fill="#014AAD" opacity="1.000000" stroke="none" 
	d="
M334.084900,98.161652 
	C340.446686,89.466179 354.377991,89.325722 364.165955,93.547279 
	C374.075562,97.821304 378.028473,103.964195 378.006378,114.951645 
	C377.980072,128.047928 378.000183,141.144333 378.000183,154.958237 
	C371.066711,154.958237 364.493347,154.958237 357.456848,154.440323 
	C356.995148,145.508194 357.072083,137.092987 356.959656,128.680298 
	C356.916626,125.459389 356.440765,122.244270 356.162109,119.026512 
	C355.226013,113.300743 352.263794,108.749443 346.376648,108.220711 
	C340.025909,107.650330 335.810852,111.733917 332.788177,118.023521 
	C332.260803,130.735306 332.135345,142.786591 332.009888,154.837860 
	C325.647858,154.877594 319.285889,154.917328 312.460022,154.437271 
	C311.995270,119.667389 311.994415,85.417305 311.993530,51.167217 
	C318.536346,50.934498 325.079193,50.701782 331.834991,51.200912 
	C332.033691,57.708698 332.011475,63.484627 332.007019,69.260574 
	C332.000397,77.842232 331.934326,86.425278 332.098785,95.003792 
	C332.119171,96.068718 333.392273,97.109612 334.084900,98.161652 
z"/>
<path fill="#024CAE" opacity="1.000000" stroke="none" 
	d="
M155.055725,127.080605 
	C155.346497,139.588196 167.315567,142.026993 176.717361,137.606979 
	C179.463623,136.315887 182.439163,133.068542 184.643219,133.581451 
	C189.106644,134.620117 193.211426,137.461594 197.211914,139.963028 
	C197.857010,140.366379 197.810425,143.331848 197.048965,144.295120 
	C191.639282,151.138672 184.577133,155.577301 175.840775,156.520859 
	C165.501678,157.637482 155.357803,157.665848 146.141312,151.206268 
	C130.777283,140.438095 128.390976,119.179787 138.767868,104.336189 
	C150.624573,87.375763 176.765640,87.595497 190.181519,98.779221 
	C198.124146,105.400352 200.859406,114.718262 199.451233,125.489304 
	C186.211227,125.976791 173.485184,125.949928 160.760254,126.058159 
	C158.855988,126.074348 156.957108,126.723991 155.055725,127.080605 
M177.708069,113.548561 
	C176.786240,108.836563 170.821747,104.449242 166.186417,105.073555 
	C160.527267,105.835762 156.582169,109.777847 156.578400,115.354164 
	C163.464096,114.960785 170.321243,114.569046 177.708069,113.548561 
z"/>
<path fill="#034CAE" opacity="1.000000" stroke="none" 
	d="
M463.963379,103.922409 
	C462.539917,106.847374 461.160919,109.397896 459.791718,111.930328 
	C448.575348,106.669403 440.266663,108.645355 436.187988,117.772591 
	C433.597382,123.569939 434.306213,129.392273 438.266785,134.520081 
	C441.580170,138.809982 448.160187,140.950119 453.684875,138.469147 
	C458.919891,136.118256 461.089691,138.027603 462.892273,142.485016 
	C464.112335,145.502106 465.678223,148.379333 467.174896,151.497162 
	C459.238129,157.308990 450.314667,157.704285 441.538971,156.833374 
	C427.061584,155.396622 416.466095,147.590683 412.382721,133.576569 
	C408.953949,121.809151 412.237671,111.265762 420.623291,101.405235 
	C430.386108,89.925240 449.512268,89.385490 460.432251,93.176048 
	C466.879364,95.413971 467.040161,96.308815 463.963379,103.922409 
z"/>
<path fill="#004AAD" opacity="1.000000" stroke="none" 
	d="
M225.011444,154.837769 
	C218.649109,154.877808 212.286774,154.917862 205.460556,154.438019 
	C204.995865,119.667572 204.995041,85.417030 204.994217,51.166496 
	C211.535858,50.933151 218.077484,50.699810 224.831329,51.198326 
	C225.032852,86.232712 225.022141,120.535240 225.011444,154.837769 
z"/>
<path fill="#004AAD" opacity="1.000000" stroke="none" 
	d="
M385.981873,93.162247 
	C392.350525,93.121956 398.719208,93.081665 405.549927,93.560394 
	C406.014648,114.331734 406.017334,134.584061 406.020020,154.836380 
	C399.651337,154.877243 393.282623,154.918106 386.451721,154.440521 
	C385.986969,133.668793 385.984436,113.415520 385.981873,93.162247 
z"/>
<path fill="#044DAE" opacity="1.000000" stroke="none" 
	d="
M389.169006,56.275620 
	C395.410583,52.208858 404.654022,54.490200 408.266144,61.621796 
	C410.867706,66.758224 408.767670,74.596916 403.287567,78.275803 
	C398.546936,81.458260 393.328064,80.737755 389.382904,77.863297 
	C386.673035,75.888885 385.175201,71.645813 384.143158,68.121735 
	C382.747406,63.355736 385.077759,59.473541 389.169006,56.275620 
z"/>
<path fill="#0B51B0" opacity="1.000000" stroke="none" 
	d="
M311.629822,51.376534 
	C311.994415,85.417305 311.995270,119.667389 311.994812,154.375153 
	C311.663239,153.818359 311.045685,152.804291 311.044342,151.789398 
	C311.001282,118.878204 311.016541,85.966919 311.035034,53.055649 
	C311.035309,52.565678 311.185760,52.075783 311.629822,51.376534 
z"/>
<path fill="#739BD2" opacity="1.000000" stroke="none" 
	d="
M225.413788,154.681503 
	C225.022141,120.535240 225.032852,86.232712 225.093719,51.463879 
	C225.427689,51.702549 225.960022,52.407665 225.959625,53.112484 
	C225.940750,86.916748 225.875854,120.720993 225.413788,154.681503 
z"/>
<path fill="#0B51B0" opacity="1.000000" stroke="none" 
	d="
M204.630280,51.375710 
	C204.995041,85.417030 204.995865,119.667572 204.995422,154.375824 
	C204.663696,153.819214 204.045700,152.805267 204.044373,151.790512 
	C204.001297,118.878632 204.016586,85.966660 204.035080,53.054707 
	C204.035355,52.564739 204.185928,52.074848 204.630280,51.375710 
z"/>
<path fill="#0B51B0" opacity="1.000000" stroke="none" 
	d="
M234.629700,93.377205 
	C234.994156,124.084251 234.994934,155.000534 234.994537,186.374420 
	C234.663147,185.817932 234.045959,184.804230 234.044449,183.789627 
	C234.000305,154.211731 234.016449,124.633751 234.035065,95.055786 
	C234.035370,94.565956 234.185699,94.076218 234.629700,93.377205 
z"/>
<path fill="#4C80C5" opacity="1.000000" stroke="none" 
	d="
M385.591949,93.337997 
	C385.984436,113.415520 385.986969,133.668793 385.985657,154.379913 
	C385.657471,154.179810 385.049652,153.521652 385.050110,152.863922 
	C385.063843,133.080521 385.137634,113.297127 385.591949,93.337997 
z"/>
<path fill="#346EBD" opacity="1.000000" stroke="none" 
	d="
M406.398254,154.645172 
	C406.017334,134.584061 406.014648,114.331734 406.016083,93.621506 
	C406.343140,93.832542 406.948547,94.501778 406.947876,95.170395 
	C406.927673,114.931625 406.847321,134.692795 406.398254,154.645172 
z"/>
<path fill="#DFE8F4" opacity="1.000000" stroke="none" 
	d="
M33.521873,30.143908 
	C33.936661,47.985825 33.963913,66.034660 33.924011,84.549652 
	C33.571915,84.335739 33.038414,83.655685 33.038342,82.975571 
	C33.036499,65.433990 33.090237,47.892406 33.521873,30.143908 
z"/>
<path fill="#749BD2" opacity="1.000000" stroke="none" 
	d="
M333.697754,97.932922 
	C333.392273,97.109612 332.119171,96.068718 332.098785,95.003792 
	C331.934326,86.425278 332.000397,77.842232 332.007019,69.260574 
	C332.011475,63.484627 332.033691,57.708698 332.097473,51.466553 
	C332.430939,52.692139 332.942505,54.381176 332.963013,56.076153 
	C333.130615,69.951538 333.206696,83.828041 333.697754,97.932922 
z"/>
<path fill="#2F6BBC" opacity="1.000000" stroke="none" 
	d="
M155.518372,127.048416 
	C156.957108,126.723991 158.855988,126.074348 160.760254,126.058159 
	C173.485184,125.949928 186.211227,125.976791 199.395203,125.939270 
	C198.389816,126.278816 196.928162,126.941940 195.462204,126.951622 
	C182.302246,127.038498 169.141525,127.010475 155.518372,127.048416 
z"/>
<path fill="#6C96D0" opacity="1.000000" stroke="none" 
	d="
M59.916351,84.576759 
	C59.564342,83.640633 59.041653,82.234390 59.047882,80.830505 
	C59.102882,68.438995 59.251854,56.047890 59.689671,43.394501 
	C60.001179,56.790806 59.996056,70.449272 59.916351,84.576759 
z"/>
<path fill="#729AD2" opacity="1.000000" stroke="none" 
	d="
M255.415924,186.680969 
	C255.037674,174.876678 255.060852,162.915665 255.091797,150.954651 
	C255.092178,150.803238 255.161407,150.547211 255.251389,150.520920 
	C255.500809,150.448029 255.778168,150.470840 256.180420,150.692001 
	C256.150208,162.793518 255.984055,174.658875 255.415924,186.680969 
z"/>
<path fill="#729AD2" opacity="1.000000" stroke="none" 
	d="
M332.412811,154.682663 
	C332.135345,142.786591 332.260803,130.735306 332.616333,118.332794 
	C332.836151,130.163528 332.825958,142.345505 332.412811,154.682663 
z"/>
<path fill="#7FA4D6" opacity="1.000000" stroke="none" 
	d="
M356.093506,119.490662 
	C356.440765,122.244270 356.916626,125.459389 356.959656,128.680298 
	C357.072083,137.092987 356.995148,145.508194 356.990967,154.379959 
	C356.658722,153.531189 356.052582,152.226761 356.043640,150.918243 
	C355.973145,140.597549 356.016541,130.276047 356.093506,119.490662 
z"/>
<path fill="#ffffff" opacity="0.000000" stroke="none" 
	d="
M267.119568,110.012985 
	C274.219940,108.873390 278.688354,111.961082 282.054047,117.473305 
	C285.423187,122.991196 284.366974,128.039505 280.908997,132.984924 
	C278.506897,136.420334 270.182281,139.264328 266.064148,138.043655 
	C259.397522,136.067581 256.178680,132.198715 256.008301,125.957092 
	C255.756531,116.733459 258.016113,113.374504 267.119568,110.012985 
z"/>
<path fill="#ffffff" opacity="0.000000" stroke="none" 
	d="
M177.443237,113.862930 
	C170.321243,114.569046 163.464096,114.960785 156.578400,115.354164 
	C156.582169,109.777847 160.527267,105.835762 166.186417,105.073555 
	C170.821747,104.449242 176.786240,108.836563 177.443237,113.862930 
z"/>
</svg>